# xmcd CD database file
#
# Track frame offsets:
#	150
#	6126
#	26027
#	51471
#	59654
#	88989
#	101505
#	118884
#	132624
#	144230
#	181824
#	235665
#
# Disc length: 3370 seconds
#
# Revision: 0
# Processed by: cddbd v1.5.2PL0 Copyright (c) Steve Scherf et al.
# Submitted via: CDex 1.70beta2
#
DISCID=ac0d280c
DTITLE=François Houle - Au Coeur Du Litige [CD1]
DYEAR=2000
DGENRE=Jazz
TTITLE0=Au Coeur Du Litige - Gresil
TTITLE1=Au Coeur Du Litige - Black Triangle
TTITLE2=Au Coeur Du Litige - Mon Coeur
TTITLE3=Au Coeur Du Litige - L'Immigrant
TTITLE4=Au Coeur Du Litige - Allegories
TTITLE5=Au Coeur Du Litige - Epilogue
TTITLE6=Blinks - Blink I
TTITLE7=Blinks - Air Froid
TTITLE8=Blinks - Blink II
TTITLE9=Periode Monocrhome
TTITLE10=Cryogenic Nightmare
TTITLE11=En Attendant La Neige
EXTD=YEAR: 2000
EXTT0=
EXTT1=
EXTT2=
EXTT3=
EXTT4=
EXTT5=
EXTT6=
EXTT7=
EXTT8=
EXTT9=
EXTT10=
EXTT11=
PLAYORDER=
